<?xml version="1.0" encoding="utf-8"?>
<!-- Generator: Adobe Illustrator 22.1.0, SVG Export Plug-In . SVG Version: 6.00 Build 0)  -->
<svg version="1.1" id="Ebene_1" xmlns="http://www.w3.org/2000/svg" xmlns:xlink="http://www.w3.org/1999/xlink" x="0px" y="0px"
	 viewBox="0 0 141.7 141.7" style="enable-background:new 0 0 141.7 141.7;" xml:space="preserve">
<path d="M26.7,24.7c4.4,3.6,6,3.3,14.2,2.7l77.5-4.7c1.6,0,0.3-1.6-0.3-1.9l-12.9-9.3c-2.5-1.9-5.8-4.1-12-3.6l-75,5.5
	c-2.7,0.3-3.3,1.6-2.2,2.7L26.7,24.7z M31.3,42.7v81.5c0,4.4,2.2,6,7.1,5.7l85.1-4.9c4.9-0.3,5.5-3.3,5.5-6.8v-81
	c0-3.6-1.4-5.5-4.4-5.2l-89,5.2C32.4,37.5,31.3,39.2,31.3,42.7z M115.4,47.1c0.5,2.5,0,4.9-2.5,5.2l-4.1,0.8v60.2
	c-3.6,1.9-6.8,3-9.6,3c-4.4,0-5.5-1.4-8.8-5.5L63.6,68.7v40.8l8.5,1.9c0,0,0,4.9-6.9,4.9l-18.9,1.1c-0.5-1.1,0-3.8,1.9-4.4l4.9-1.4
	V57.8l-6.8-0.5c-0.5-2.5,0.8-6,4.7-6.3l20.3-1.4l27.9,42.7V54.5l-7.1-0.8c-0.5-3,1.6-5.2,4.4-5.5L115.4,47.1z M11.9,6.1l78-5.7
	c9.6-0.8,12-0.3,18.1,4.1l24.9,17.5c4.1,3,5.5,3.8,5.5,7.1v96c0,6-2.2,9.6-9.9,10.1l-90.6,5.5c-5.8,0.3-8.5-0.5-11.5-4.4L8,112.5
	c-3.3-4.4-4.7-7.7-4.7-11.5V15.6C3.4,10.7,5.6,6.6,11.9,6.1z"/>
</svg>
