<?xml version="1.0" encoding="utf-8"?>
<!-- Generator: Adobe Illustrator 22.1.0, SVG Export Plug-In . SVG Version: 6.00 Build 0)  -->
<svg version="1.1" id="Ebene_1" xmlns="http://www.w3.org/2000/svg" xmlns:xlink="http://www.w3.org/1999/xlink" x="0px" y="0px"
	 viewBox="0 0 141.7 141.7" style="enable-background:new 0 0 141.7 141.7;" xml:space="preserve">
<style type="text/css">
	.st0{fill:#F9BF00;}
</style>
<path class="st0" d="M28.3,28.8L16.2,14.2l-6.8,6.5l18.9,21.9l28.3-31L50,4.8L28.3,28.8z M66.1,18.9v9.4h66.1v-9.4H66.1z M28.3,76
	L16.2,61.4l-6.8,6.5l18.9,21.9l28.3-31L50.1,52L28.3,76z M66.1,75.6h66.1v-9.4H66.1V75.6z M28.3,123.3l-12.1-14.6l-6.8,6.5L28.3,137
	l28.3-31L50,99.2L28.3,123.3z M66.1,122.8h66.1v-9.4H66.1V122.8z"/>
</svg>
