<?xml version="1.0" encoding="utf-8"?>
<!-- Generator: Adobe Illustrator 22.1.0, SVG Export Plug-In . SVG Version: 6.00 Build 0)  -->
<svg version="1.1" id="Ebene_1" xmlns="http://www.w3.org/2000/svg" xmlns:xlink="http://www.w3.org/1999/xlink" x="0px" y="0px"
	 viewBox="0 0 141.7 141.7" style="enable-background:new 0 0 141.7 141.7;" xml:space="preserve">
<style type="text/css">
	.st0{fill:#2D5794;}
</style>
<path class="st0" d="M127.6,108.7V4.7H33.1c-10.4,0-18.9,8.5-18.9,18.9v94.5c0,10.4,8.5,18.9,18.9,18.9h94.5v-9.4h-4.7v-18.9H127.6z
	 M99.2,14.2v28.3l-4.7-6.3l-4.7,6.3V14.2H99.2z M94.5,52l14.2,18.9V14.2h9.4v85H42.5v-85h37.8v56.7L94.5,52z M23.6,23.6
	c0-5.2,4.2-9.4,9.4-9.4v85c-3.4,0-6.7,0.9-9.4,2.5V23.6z M113.4,127.6H33.1c-5.2,0-9.4-4.2-9.4-9.4c0-5.2,4.2-9.4,9.4-9.4h80.3
	V127.6z"/>
</svg>
