<?xml version="1.0" encoding="utf-8"?>
<!-- Generator: Adobe Illustrator 22.1.0, SVG Export Plug-In . SVG Version: 6.00 Build 0)  -->
<svg version="1.1" id="Ebene_1" xmlns="http://www.w3.org/2000/svg" xmlns:xlink="http://www.w3.org/1999/xlink" x="0px" y="0px"
	 viewBox="0 0 595.3 595.3" style="enable-background:new 0 0 595.3 595.3;" xml:space="preserve">
<style type="text/css">
	.st0{enable-background:new    ;}
	.st1{fill:#FFFFFF;}
</style>
<g class="st0">
	<path class="st1" d="M116.3,68.9h8.8l29.9,84.6h-8l-8.1-23.9h-37.5l-8.3,23.9h-7.5L116.3,68.9z M103.5,123.3h33.1l-16.3-47.9
		L103.5,123.3z"/>
	<path class="st1" d="M182.8,68.9h24.6c16.2,0,24.6,7.9,24.6,20.9c0,10.3-6.7,17-14.5,18.7v0.3c9.5,1.6,17,8.4,17,20.6
		c0,13.7-9.2,24-26.1,24h-25.5V68.9H182.8z M190.2,106.1h16.7c11.7,0,17.8-6,17.8-16c0-9.2-5.7-14.9-17.7-14.9h-16.8V106.1z
		 M190.2,147.2h17.2c12.8,0,19.3-6.7,19.3-17.7c0-11.3-6.4-17.7-19.4-17.7h-17.1V147.2z"/>
	<path class="st1" d="M263.2,111.2c0-22.5,10.5-43.4,36.4-43.4c25.7,0,36.3,19.3,36.3,43.3c0,22.5-10.6,43.4-36.3,43.4
		C273.7,154.5,263.2,135.2,263.2,111.2z M328.1,111.1c0-21.3-8.6-37.1-28.5-37.1c-20.2,0-28.6,16.3-28.6,37.2
		c0,21.3,8.4,37.1,28.6,37.1C319.6,148.3,328.1,132,328.1,111.1z"/>
	<path class="st1" d="M367.6,124.7V68.9h7.3v54.7c0,15.8,7.7,24.7,22.5,24.7s22.7-9,22.7-24.7V68.9h7.1v55.8
		c0,19.7-12.6,29.9-29.7,29.9S367.6,144.6,367.6,124.7z"/>
	<path class="st1" d="M476,75.1h-23.9v-6.2h56.8v6.2h-25.7v78.3H476V75.1z"/>
</g>
<g class="st0">
	<path class="st1" d="M350.4,177.4h5.5l8.1,22.2h-5.3l-1.4-4.4h-8.7l-1.5,4.4h-5L350.4,177.4z M356,191.2l-1.9-5.7
		c-0.4-1.3-0.9-2.6-1.1-3.6h-0.1c-0.3,1-0.7,2.4-1.1,3.6l-1.9,5.7H356z"/>
	<path class="st1" d="M369.2,177.4h5.2l7.5,12c0.7,1.1,1.5,2.6,1.9,3.6h0.1c-0.1-1-0.1-2.4-0.1-3.4v-12.2h4.4v22.2H383l-7.5-12
		c-0.7-1.1-1.4-2.4-1.9-3.4h-0.1c0,1,0.1,2.1,0.1,3.2v12.3h-4.3v-22.3H369.2z"/>
	<path class="st1" d="M395.8,177.4h7.7c8,0,10.9,5.3,10.9,11.1c0,5.4-2.8,11.1-11,11.1h-7.6V177.4z M402.9,195.6
		c5.2,0,6.5-3.1,6.5-7.1s-1.2-7.2-6.2-7.2h-2.4v14.3H402.9z"/>
	<path class="st1" d="M431.9,196.8l-4-6.1h-2.2v8.9h-4.9v-22.2h8.7c4.6,0,7.3,2.6,7.3,6.7c0,2.2-1.1,4.6-4.1,5.7l3.5,5.1
		c0.6,0.9,1.2,1.1,2,1.1c0.2,0,0.4,0,0.6,0v3.6c-0.5,0.1-1.1,0.2-1.6,0.2C434.9,199.9,433.5,199.3,431.9,196.8z M428.5,187.4
		c2.2,0,3.2-1.3,3.2-3.1c0-1.9-1-3.1-3.2-3.1h-2.9v6.1h2.9V187.4z"/>
	<path class="st1" d="M444.3,177.4h4.9v22.2h-4.9V177.4z"/>
	<path class="st1" d="M456.9,177.4h5.2l7.5,12c0.7,1.1,1.5,2.6,1.9,3.6h0.1c-0.1-1-0.1-2.4-0.1-3.4v-12.2h4.4v22.2h-5.2l-7.5-12
		c-0.7-1.1-1.4-2.4-1.9-3.4h-0.1c0,1,0.1,2.1,0.1,3.2v12.3h-4.4V177.4z"/>
	<path class="st1" d="M489.4,177.4h5.5l8.1,22.2h-5.3l-1.4-4.4h-8.7l-1.5,4.4h-5L489.4,177.4z M494.9,191.2l-1.9-5.7
		c-0.4-1.3-0.9-2.6-1.1-3.6h-0.1c-0.3,1-0.7,2.4-1.1,3.6l-1.9,5.7H494.9z"/>
</g>
</svg>
