<?xml version="1.0" encoding="utf-8"?>
<!-- Generator: Adobe Illustrator 22.1.0, SVG Export Plug-In . SVG Version: 6.00 Build 0)  -->
<svg version="1.1" id="Ebene_1" xmlns="http://www.w3.org/2000/svg" xmlns:xlink="http://www.w3.org/1999/xlink" x="0px" y="0px"
	 viewBox="0 0 595.3 595.3" style="enable-background:new 0 0 595.3 595.3;" xml:space="preserve">
<style type="text/css">
	.st0{enable-background:new    ;}
</style>
<g class="st0">
	<path d="M95.3,68.9h25.1c14.8,0,23.9,10,23.9,24.7c0,13.4-8.7,24.6-23.8,24.6h-17.9v35.3h-7.3V68.9z M102.6,112.4H119
		c11.9,0,17.7-8.3,17.7-18.9c0-10.9-5.8-18.6-17.8-18.6h-16.3V112.4z"/>
	<path d="M161.7,111.2c0-22.5,10.5-43.4,36.4-43.4c25.7,0,36.3,19.3,36.3,43.3c0,22.5-10.6,43.4-36.3,43.4
		C172.1,154.5,161.7,135.2,161.7,111.2z M226.6,111.1C226.6,89.8,218,74,198,74c-20.2,0-28.6,16.3-28.6,37.2
		c0,21.3,8.4,37.1,28.6,37.1C218,148.3,226.6,132,226.6,111.1z"/>
	<path d="M308.4,146.7l-21.6-33h-12.5v39.8H267V68.9h24.6c14.7,0,24.2,8.1,24.2,22.5c0,10.3-7.1,20-21.2,21.9l20,29.9
		c2.2,3.4,4.6,4.8,7.9,4.8c0.8,0,1.5-0.1,2.4-0.3v6.1c-1.1,0.1-2.4,0.3-3.7,0.3C316,154,311.8,151.9,308.4,146.7z M274.4,108H290
		c12.1,0,18.3-7.3,18.3-16.6c0-10.7-5.8-16.6-18.2-16.6h-15.7V108z"/>
	<path d="M365.2,75.1h-23.9v-6.2H398v6.2h-25.7v78.3h-7.2V75.1z"/>
	<path d="M409.5,111.2h25.7v6.1h-25.7V111.2z"/>
</g>
<g class="st0">
	<path d="M179.8,203.9H224v6.2h-36.9v29.5h33.4v6.1h-33.4v42.8h-7.3V203.9z"/>
	<path d="M248.2,246.2c0-22.5,10.5-43.4,36.4-43.4c25.7,0,36.3,19.3,36.3,43.3c0,22.5-10.6,43.4-36.3,43.4
		C258.7,289.5,248.2,270.2,248.2,246.2z M313.1,246.1c0-21.3-8.6-37.1-28.5-37.1c-20.2,0-28.6,16.3-28.6,37.2
		c0,21.3,8.4,37.1,28.6,37.1C304.5,283.3,313.1,267,313.1,246.1z"/>
	<path d="M353.6,203.9h7.3v78.3H395v6.2h-41.4V203.9z"/>
	<path d="M426.7,203.9h7.3v84.6h-7.3V203.9z"/>
	<path d="M467.3,246.2c0-22.5,10.5-43.4,36.4-43.4c25.7,0,36.3,19.3,36.3,43.3c0,22.5-10.6,43.4-36.3,43.4
		C477.8,289.5,467.3,270.2,467.3,246.2z M532.2,246.1c0-21.3-8.6-37.1-28.5-37.1c-20.2,0-28.6,16.3-28.6,37.2
		c0,21.3,8.4,37.1,28.6,37.1C523.7,283.3,532.2,267,532.2,246.1z"/>
</g>
</svg>
